<?xml version="1.0" encoding="utf-8"?>
<!-- Generator: Adobe Illustrator 16.0.0, SVG Export Plug-In . SVG Version: 6.00 Build 0)  -->
<!DOCTYPE svg PUBLIC "-//W3C//DTD SVG 1.1//EN" "http://www.w3.org/Graphics/SVG/1.1/DTD/svg11.dtd">
<svg version="1.1" id="Слой_1" xmlns="http://www.w3.org/2000/svg" xmlns:xlink="http://www.w3.org/1999/xlink" x="0px" y="0px"
	 width="32px" height="32px" viewBox="0 0 32 32" enable-background="new 0 0 32 32" xml:space="preserve">
<path fill="#FFFFFF" d="M3.25,17.313h18.617l-7.468,7.439c-0.284,0.284-0.44,0.661-0.44,1.062s0.157,0.777,0.44,1.06
	c0.567,0.566,1.556,0.566,2.121,0l9.899-9.899c0.281-0.28,0.436-0.658,0.436-1.061s-0.155-0.78-0.437-1.059l-9.899-9.9
	c-0.284-0.283-0.661-0.438-1.061-0.438s-0.777,0.155-1.06,0.438c-0.284,0.283-0.44,0.66-0.44,1.062s0.156,0.776,0.445,1.065
	l7.442,7.232H3.25c-0.828,0-1.5,0.673-1.5,1.5S2.422,17.313,3.25,17.313z"/>
</svg>
