<?xml version="1.0" encoding="utf-8"?>
<!-- Generator: Adobe Illustrator 16.0.0, SVG Export Plug-In . SVG Version: 6.00 Build 0)  -->
<!DOCTYPE svg PUBLIC "-//W3C//DTD SVG 1.1//EN" "http://www.w3.org/Graphics/SVG/1.1/DTD/svg11.dtd">
<svg version="1.1" id="Calque_1" xmlns="http://www.w3.org/2000/svg" xmlns:xlink="http://www.w3.org/1999/xlink" x="0px" y="0px"
	 width="566.929px" height="579.928px" viewBox="0 0 566.929 579.928" enable-background="new 0 0 566.929 579.928"
	 xml:space="preserve">
<g>
	<path fill-rule="evenodd" clip-rule="evenodd" fill="#FFFFFF" d="M248.165,382.25c2.735-3.175,5.193-6.578,5.734-10.865
		c0.314-2.492,0.188-5.235-2.448-6.535c-2.762-1.361-4.119,1.031-5.736,2.697c-6.782,6.989-13.821,13.687-22.022,19.276
		c-0.328-0.776-0.547-1.055-0.549-1.335c-0.356-49.801-0.685-99.601-1.083-149.401c-0.018-2.258,0.707-3.648,2.567-4.918
		c6.325-4.32,12.495-8.866,18.037-14.185c4.223-4.052,8.321-8.296,9.99-14.086c0.842-2.92,0.892-6.323-2.239-8.01
		c-2.926-1.575-4.33,1.345-6.034,3.07c-6.719,6.804-13.622,13.395-22.271,19.285c0-9.707-0.015-18.487,0.005-27.269
		c0.015-5.998,0.132-12.007-1.206-17.902c-0.736-3.249-1.602-6.478-4.312-8.793c-1.627-1.39-3.592-2.106-5.551-1.527
		c-2.202,0.651-1.167,2.855-1.204,4.328c-0.462,18.474-0.875,36.949-1.146,55.426c-0.046,3.157-1.1,4.93-3.882,6.68
		c-8.584,5.397-17.207,10.846-24.341,18.19c-3.374,3.473-6.5,7.201-6.643,12.448c-0.069,2.556-0.036,5.412,2.62,6.495
		c2.587,1.055,4.083-1.336,5.685-3.041c7.531-8.011,16.312-14.416,26.699-21.013c0,4.898-0.013,8.673,0.003,12.448
		c0.097,24.489-0.603,49.016,0.542,73.456c1.015,21.666,0.302,43.264,0.296,64.894c-0.001,2.915-1.19,4.399-3.537,5.892
		c-8.843,5.622-17.782,11.179-25.086,18.841c-3.476,3.646-6.496,7.605-6.226,13.115c0.112,2.277,0.482,4.632,2.696,5.471
		c2.071,0.784,3.603-0.887,5.016-2.445c7.552-8.324,16.595-14.794,26.717-21.4c0.132,1.708,0.24,2.499,0.248,3.291
		c0.163,16.488,0.14,32.979,0.521,49.462c0.338,14.646-0.642,29.323,0.946,43.939c0.574,5.287,1.037,10.644,4.233,15.18
		c1.819,2.583,4.634,3.618,7.493,2.757c2.528-0.764,1.221-3.454,1.211-5.208c-0.202-37.473-0.431-74.947-0.906-112.418
		c-0.053-4.198,1.28-6.61,4.66-8.886C235.122,394.632,242.247,389.122,248.165,382.25z"/>
	<path fill-rule="evenodd" clip-rule="evenodd" fill="#FFFFFF" d="M114.842,244.363c2.586-1.983,0.22-4.565-0.806-6.713
		c-6.155-12.894-12.861-25.529-17.945-38.922c-0.937-2.467-0.983-4.604-0.176-7.171c10.973-34.856,18.983-70.311,20.419-106.973
		c0.463-11.815,0.323-23.682-4.956-34.74c-2.259-4.733-5.581-8.193-10.919-9.411c-7.861-1.794-16.173,1.917-21.821,9.94
		c-5.604,7.96-8.221,17.107-9.492,26.53c-5.224,38.729-0.619,76.677,9.837,114.071c0.813,2.909,0.712,5.25-0.467,8.051
		c-4.98,11.82-12.182,22.524-17.028,34.388c-0.606,1.484-2.379,3.192-0.471,4.943c1.714,1.573,3.856,2.019,6.068,1.414
		c3.368-0.921,5.734-3.244,7.778-5.959c4.937-6.558,8.19-14.038,12.004-22.233c4.005,8.168,7.537,15.616,11.3,22.945
		c1.821,3.548,3.951,7.032,7.342,9.329C108.432,245.831,112.013,246.533,114.842,244.363z M83.371,147.024
		c-2.837-23.18-3.769-46.374,0.612-69.502c1.302-6.875,3.007-13.634,6.781-19.633c1.215-1.931,2.675-4.154,5.394-3.8
		c2.772,0.361,3.35,2.944,4.055,5.135c3.012,9.347,2.973,19.029,2.559,28.642c-1.22,28.324-6.355,56.018-14.491,84.7
		C85.564,163.36,84.37,155.188,83.371,147.024z"/>
	<path fill-rule="evenodd" clip-rule="evenodd" fill="#FFFFFF" d="M326.067,301.451c-3.288,2.625-5.851,5.908-7.832,9.611
		c-3.887,7.265-6.146,15.102-7.202,23.196c-5.077,38.886-0.419,76.957,10.132,114.464c0.693,2.463,0.663,4.42-0.433,6.619
		c-5.777,11.589-11.557,23.179-17.157,34.853c-0.727,1.514-2.733,3.422-0.405,5.292c1.961,1.575,4.253,1.924,6.594,1.054
		c3.766-1.398,6.166-4.377,8.387-7.544c4.301-6.134,7.134-13.055,10.902-20.749c4.154,9.284,7.64,17.715,12.401,25.501
		c1.74,2.845,3.556,5.738,6.532,7.406c2.849,1.597,6.231,2.303,8.866,0.083c2.574-2.168,0.091-4.596-0.914-6.714
		c-6.116-12.896-12.88-25.491-17.863-38.909c-0.827-2.228-1.096-4.224-0.32-6.688c10.966-34.821,19.05-70.22,20.498-106.864
		c0.454-11.491,0.486-23.036-4.283-33.836C348.658,296.195,336.301,293.28,326.067,301.451z M344.46,349.782
		c-1.506,26.636-6.585,52.657-14.189,79.755c-2.775-9.151-3.903-17.338-4.921-25.495c-2.909-23.346-3.795-46.715,0.662-69.996
		c1.313-6.855,3.017-13.637,6.967-19.56c1.194-1.789,2.602-3.728,5.101-3.441c2.57,0.293,3.29,2.62,3.938,4.642
		C345.597,326.842,345.106,338.331,344.46,349.782z"/>
	<path fill-rule="evenodd" clip-rule="evenodd" fill="#FFFFFF" d="M303.839,205.52c8.033-5.37,15.711-11.288,21.712-19.005
		c2.56-3.292,4.883-6.824,4.35-11.343c-0.219-1.858-0.774-3.729-2.713-4.428c-1.99-0.716-3.342,0.439-4.689,1.93
		c-5.483,6.063-11.531,11.544-17.961,16.589c-1.581,1.242-2.859,3.183-5.436,3.14c0-8.418,0.004-16.581-0.001-24.742
		c-0.004-6.493,0.229-13.001-1.159-19.411c-0.747-3.448-1.708-6.795-4.613-9.153c-1.656-1.345-3.659-1.992-5.588-1.212
		c-1.739,0.703-0.875,2.653-0.908,4.029c-0.449,18.643-0.891,37.286-1.162,55.932c-0.044,3.043-1.22,4.65-3.738,6.257
		c-8.972,5.727-18.079,11.35-25.393,19.256c-3.19,3.449-5.919,7.224-5.714,12.326c0.089,2.232,0.277,4.645,2.459,5.603
		c2.339,1.025,3.906-0.849,5.411-2.5c7.556-8.294,16.562-14.757,27.27-21.621c0,18.27-0.218,35.072,0.063,51.867
		c0.254,15.147-0.641,30.324,0.948,45.443c0.505,4.804,1.108,9.606,3.496,13.919c1.716,3.099,4.63,4.73,7.949,3.816
		c3.01-0.829,1.472-3.956,1.462-5.96c-0.18-37.145-0.413-74.289-0.892-111.431C298.937,210.458,300.256,207.915,303.839,205.52z"/>
	<path fill-rule="evenodd" clip-rule="evenodd" fill="#FFFFFF" d="M156,299.001c0.027-7.249-0.858-12.12-2.794-16.786
		c-5.399-13.009-16.383-16.016-27.627-7.464c-2.17,1.65-3.644,3.082-5.378-0.575c-1.589-3.353-4.966-4.811-8.422-3.848
		c-3.81,1.062-1.708,4.585-1.514,6.832c2.792,32.196,2.737,64.497,3.678,96.757c0.461,15.827-0.802,31.578-2.958,47.271
		c-0.64,4.659,2.046,8.532,5.537,8.626c4.531,0.12,6.578-2.99,7.172-6.892c1.452-9.528,2.68-19.075,2.59-28.773
		c-0.186-19.965-0.091-39.932-0.207-59.897c-0.013-2.328,0.077-3.465,3.066-3.425c6.263,0.083,11.604-2.687,16.055-6.979
		C152.838,316.479,155.666,307.123,156,299.001z M137.801,313.403c-1.286,1.769-3.067,2.985-5.12,3.812
		c-5.18,2.086-6.897,1.066-7.17-4.493c-0.138-2.807-0.024-5.626-0.024-8.157c-1.74-7.92,0.143-14.375,6.405-19.312
		c4.861-3.833,8.299-3.095,10.132,2.75C144.871,297.083,143.432,305.654,137.801,313.403z"/>
	<path fill-rule="evenodd" clip-rule="evenodd" fill="#FFFFFF" d="M187.946,488.057c0.12-10.797-5.13-14.972-15.889-12.968
		c-19.453,3.622-35.813,24.025-35.224,43.929c0.43,14.539,12.171,21.602,25.34,15.324c4.565-2.177,7.916-5.83,11.776-9.484
		c1.304,3.929,0.986,8.021,3.69,11.039c1.894,2.116,4.282,3.496,7.04,2.87c3.067-0.696,2.364-3.588,2.412-5.82
		C187.412,517.984,187.779,503.021,187.946,488.057z M173.869,490.659c-1.768,11.181-5.46,21.473-13.541,29.772
		c-0.575,0.59-1.221,1.115-1.868,1.629c-1.901,1.512-4.1,2.554-6.44,1.643c-2.648-1.03-2.161-3.806-2.581-5.73
		c-0.152-12.398,9.732-26.157,21.004-29.625C172.694,487.655,174.4,487.296,173.869,490.659z"/>
	<path fill-rule="evenodd" clip-rule="evenodd" fill="#FFFFFF" d="M156.922,214.06c4.774-2.409,8.663-5.75,9.135-11.572
		c0.346-4.268-1.607-5.601-5.426-3.685c-3.721,1.868-7.419,3.779-11.45,4.854c-9.879,2.634-18.215-3.939-17.884-14.101
		c2.769,0.33,5.524,0.826,8.296,0.955c6.417,0.298,12.616-0.608,18.116-4.245c9.269-6.13,10.316-18.882,2.189-26.152
		c-10.66-9.536-30.374-6.54-37.428,5.855c-5.919,10.402-6.886,21.536-3.069,32.775C124.997,215.221,141.522,221.833,156.922,214.06z
		 M148.896,167.893c1.529,0.705,3.063,1.547,3.237,3.415c0.192,2.059-1.104,3.436-2.778,4.325
		c-5.466,2.903-11.135,2.011-16.866,0.921C135.28,168.05,141.846,164.642,148.896,167.893z"/>
	<path fill-rule="evenodd" clip-rule="evenodd" fill="#FFFFFF" d="M443.88,440.515c-1.833-1.295-3.459-0.331-5.083,0.597
		c-3.33,1.905-6.827,3.469-10.522,4.484c-8.245,2.267-15.577-1.892-17.908-9.966c-0.852-2.952-1.022-4.586,3.161-3.777
		c8.025,1.55,15.956,1.005,23.07-3.596c8.643-5.588,10.417-17.611,3.774-24.716c-10.195-10.904-30.915-8.869-38.591,3.916
		c-6.28,10.463-7.213,21.715-3.458,33.158c3.896,11.872,12.984,18.436,24.484,18.48c5.649,0.095,10.874-1.428,15.563-4.507
		c3.259-2.14,5.95-4.923,6.52-9.02C445.13,443.854,445.76,441.844,443.88,440.515z M417.77,410.019
		c3.953-1.99,7.986-1.554,11.748,0.847c1.434,0.915,2.08,2.277,1.392,3.822c-1.755,3.94-5.567,4.213-9.14,4.798
		c-0.805,0.132-1.649,0.02-2.476,0.014c-2.688-0.278-7.229,0.479-7.505-1.687C411.377,414.556,414.594,411.618,417.77,410.019z"/>
	<path fill-rule="evenodd" clip-rule="evenodd" fill="#FFFFFF" d="M282.545,490.81c-3.586,1.752-7.124,3.603-10.981,4.701
		c-8.295,2.362-15.499-1.538-18.093-9.636c-1.039-3.24-1.065-4.833,3.283-3.995c7.861,1.516,15.616,0.927,22.631-3.454
		c10.12-6.321,10.719-20.189,1.259-27.38c-8.774-6.67-29.339-7.614-37.005,8.268c-4.784,9.91-5.718,20.098-2.556,30.534
		c3.711,12.249,13.059,19.268,24.938,19.229c5.646,0.047,10.88-1.459,15.531-4.612c3.534-2.395,6.296-5.474,6.5-10.095
		C288.24,490.137,286.426,488.913,282.545,490.81z M270.877,459.875c1.54,0.699,3.066,1.517,3.236,3.402
		c0.186,2.065-1.084,3.444-2.773,4.328c-5.479,2.866-11.154,1.999-16.893,0.912C257.31,460.041,263.825,456.674,270.877,459.875z"/>
	<path fill-rule="evenodd" clip-rule="evenodd" fill="#FFFFFF" d="M490.038,386.825c-5.721-1.919-10.888-0.01-15.645,2.823
		c-3.209,1.911-5.054,2.746-6.637-1.769c-1.245-3.551-4.668-3.631-8.059-2.983c-3.813,0.729-2.699,3.742-2.724,6.02
		c-0.084,7.986-0.033,16.084-0.033,24.084c0.059,0,0.115,0,0.174,0c0,3-0.046,6.201,0.01,9.363
		c0.097,5.486,0.15,10.915,0.425,16.394c0.189,3.777,3.953,7.107,7.566,7.189c4.955,0.111,4.269-3.554,4.441-6.595
		c0.481-8.467,0.838-16.95,1.402-25.413c0.396-5.925,2.768-10.975,7.831-14.328c4.295-2.844,9.313-3.296,14.307-3.667
		c5.364-0.399,6.193-2.044,3.231-6.438C494.793,389.225,492.639,387.697,490.038,386.825z"/>
	<path fill-rule="evenodd" clip-rule="evenodd" fill="#FFFFFF" d="M382.953,448c-0.061,0-0.121,0-0.183,0
		c0-5,0.087-8.801-0.024-13.117c-0.114-4.475-0.234-9.045-0.69-13.494c-0.57-5.54-4.137-9.194-8.594-9.416
		c-2.422-0.12-3.585,0.484-3.559,3.258c0.167,17.272,0.136,34.536,0.282,51.81c0.028,3.308,1.538,6.05,4.395,7.936
		c2.09,1.38,4.373,1.658,6.651,0.815c2.564-0.95,1.673-3.177,1.69-5.033C382.995,463.119,382.953,455,382.953,448z"/>
	<path fill-rule="evenodd" clip-rule="evenodd" fill="#FFFFFF" d="M253.211,343.354c4.516,2.509,7.759,0.599,7.747-4.459
		c-0.029-11.626-0.046-23.253-0.205-34.877c-0.07-5.138-0.24-10.296-0.79-15.399c-0.529-4.917-4.11-8.332-8.192-8.663
		c-2.608-0.211-3.93,0.507-3.864,3.559c0.181,8.468,0.063,16.486,0.063,25.486c0.06,0,0.119,0,0.179,0c0,8,0.037,16.537-0.016,24.84
		C248.107,337.988,249.526,341.307,253.211,343.354z"/>
	<path fill-rule="evenodd" clip-rule="evenodd" fill="#FFFFFF" d="M161.948,239.861c-7.176-0.695-12.309,5.377-12.404,14.673
		c-0.088,8.542,4.543,15.55,11.238,17.548c2.689,0.803,3.929,0.048,4.769-2.445c1.054-3.13,1.807-6.515-0.615-8.966
		c-5.007-5.063-3.591-9.602,0.021-14.529C167.554,242.599,166.332,240.285,161.948,239.861z"/>
	<path fill-rule="evenodd" clip-rule="evenodd" fill="#FFFFFF" d="M376.116,407.948c4.175-0.005,6.835-2.418,6.829-6.193
		c-0.006-3.567-3.25-6.2-7.572-6.146c-4.291,0.054-6.909,2.422-6.837,6.184C368.604,405.398,371.751,407.953,376.116,407.948z"/>
	<path fill-rule="evenodd" clip-rule="evenodd" fill="#FFFFFF" d="M253.221,263.648c-4.24,0.091-6.856,2.562-6.682,6.31
		c0.164,3.532,3.478,6.104,7.743,6.006c4.138-0.095,6.79-2.614,6.679-6.345C260.855,266.071,257.594,263.555,253.221,263.648z"/>
</g>
</svg>
