<?xml version="1.0" encoding="utf-8"?>
<!-- Generator: Adobe Illustrator 16.0.0, SVG Export Plug-In . SVG Version: 6.00 Build 0)  -->
<!DOCTYPE svg PUBLIC "-//W3C//DTD SVG 1.1//EN" "http://www.w3.org/Graphics/SVG/1.1/DTD/svg11.dtd">
<svg version="1.1" id="Calque_3" xmlns="http://www.w3.org/2000/svg" xmlns:xlink="http://www.w3.org/1999/xlink" x="0px" y="0px"
	 width="1869.323px" height="1776.858px" viewBox="0 0 1869.323 1776.858" enable-background="new 0 0 1869.323 1776.858"
	 xml:space="preserve">
<g>
	<path fill="#33353E" d="M1070.27,1181.197c63.505-63.506,113.378-137.49,148.234-219.899
		c36.115-85.385,54.427-176.014,54.427-269.368c0-93.355-18.312-183.983-54.426-269.368c-34.856-82.409-84.73-156.395-148.235-219.9
		c-63.505-63.505-137.49-113.378-219.899-148.234C764.985,18.313,674.357,0,581.002,0C445.435,0,128.829,0.187,124.939,0.188
		L0,0.248v1383.396l124.945,0.055c3.658,0.001,297.604,0.16,456.057,0.16c93.355,0,183.983-18.312,269.368-54.427
		C932.779,1294.575,1006.764,1244.702,1070.27,1181.197z"/>
	<path fill="#33353E" d="M1318.508,666.104c54.763,18.438,105.791,47.585,149.94,86.266l164.744-188.041
		c-61.736-54.088-131.75-96.357-208.095-125.636c-67.141-25.748-137.367-40.711-209.259-44.64
		c22.749,36.433,42.353,75.024,58.666,115.557C1294.858,560.183,1309.555,612.506,1318.508,666.104z"/>
	<path fill="#33353E" d="M1864.598,1003.752l-0.092,0.011h-524.912v225h255.693c-59.808,173.283-224.546,298.096-417.894,298.096
		c-91.348,0-176.312-27.859-246.84-75.527c-7.979,3.928-16.039,7.708-24.184,11.329c-84.723,37.66-174.61,56.889-267.199,57.185
		c15.285,18.869,31.607,37.005,48.955,54.353c63.505,63.505,137.49,113.378,219.899,148.234
		c85.385,36.115,176.013,54.427,269.368,54.427c93.354,0,183.983-18.312,269.368-54.427
		c82.409-34.856,156.395-84.729,219.899-148.234s113.378-137.49,148.234-219.899c36.115-85.385,54.427-176.014,54.427-269.368
		C1869.323,1057.834,1867.733,1030.521,1864.598,1003.752z"/>
</g>
</svg>
