<?xml version="1.0" encoding="utf-8"?>
<!-- Generator: Adobe Illustrator 16.0.0, SVG Export Plug-In . SVG Version: 6.00 Build 0)  -->
<!DOCTYPE svg PUBLIC "-//W3C//DTD SVG 1.1//EN" "http://www.w3.org/Graphics/SVG/1.1/DTD/svg11.dtd">
<svg version="1.1" id="Calque_1" xmlns="http://www.w3.org/2000/svg" xmlns:xlink="http://www.w3.org/1999/xlink" x="0px" y="0px"
	 width="54.833px" height="40.25px" viewBox="0 0 54.833 40.25" enable-background="new 0 0 54.833 40.25" xml:space="preserve">
<g>
	<path fill="#353740" stroke="#353740" stroke-width="0.75" stroke-miterlimit="10" d="M9.648,9.784
		c9.09,1.171,13.356,3.654,13.398,3.679c0.096,0.056,0.2,0.083,0.304,0.083c0.204,0,0.402-0.104,0.514-0.292
		c0.169-0.283,0.076-0.648-0.206-0.817c-0.18-0.106-4.49-2.63-13.858-3.837C9.472,8.561,9.174,8.789,9.132,9.115
		C9.09,9.442,9.322,9.742,9.648,9.784z"/>
	<path fill="#353740" stroke="#353740" stroke-width="0.75" stroke-miterlimit="10" d="M9.648,14.035
		c9.09,1.171,13.356,3.654,13.398,3.679c0.096,0.056,0.2,0.083,0.304,0.083c0.204,0,0.402-0.104,0.514-0.292
		c0.169-0.283,0.076-0.648-0.206-0.817c-0.18-0.106-4.489-2.63-13.857-3.837c-0.328-0.041-0.626,0.188-0.668,0.516
		C9.09,13.693,9.322,13.993,9.648,14.035z"/>
	<path fill="#353740" stroke="#353740" stroke-width="0.75" stroke-miterlimit="10" d="M9.648,22.537
		c9.09,1.171,13.356,3.654,13.398,3.679c0.096,0.058,0.2,0.084,0.304,0.084c0.204,0,0.402-0.104,0.514-0.291
		c0.169-0.282,0.076-0.647-0.206-0.817c-0.18-0.105-4.489-2.631-13.857-3.838c-0.328-0.037-0.626,0.188-0.668,0.517
		S9.322,22.495,9.648,22.537z"/>
	<path fill="#353740" stroke="#353740" stroke-width="0.75" stroke-miterlimit="10" d="M9.648,18.286
		c9.09,1.171,13.356,3.653,13.398,3.68c0.096,0.058,0.2,0.083,0.304,0.083c0.204,0,0.402-0.104,0.514-0.292
		c0.169-0.282,0.076-0.647-0.206-0.815c-0.18-0.107-4.489-2.631-13.857-3.838c-0.328-0.037-0.626,0.188-0.668,0.516
		C9.091,17.947,9.322,18.244,9.648,18.286z"/>
	<path fill="#353740" stroke="#353740" stroke-width="0.75" stroke-miterlimit="10" d="M9.648,26.788
		c9.09,1.17,13.356,3.653,13.398,3.68c0.096,0.058,0.2,0.084,0.304,0.084c0.204,0,0.402-0.104,0.514-0.291
		c0.169-0.282,0.076-0.649-0.206-0.817c-0.18-0.106-4.489-2.631-13.857-3.838c-0.328-0.047-0.626,0.188-0.668,0.516
		S9.322,26.746,9.648,26.788z"/>
	<path fill="#353740" stroke="#353740" stroke-width="0.75" stroke-miterlimit="10" d="M31.532,13.546
		c0.104,0,0.209-0.027,0.305-0.083c0.043-0.025,4.309-2.508,13.397-3.679c0.327-0.042,0.558-0.341,0.517-0.668
		c-0.043-0.327-0.342-0.554-0.668-0.516c-9.369,1.208-13.679,3.731-13.857,3.838c-0.282,0.169-0.375,0.535-0.206,0.817
		C31.129,13.442,31.329,13.546,31.532,13.546z"/>
	<path fill="#353740" stroke="#353740" stroke-width="0.75" stroke-miterlimit="10" d="M31.532,17.797
		c0.104,0,0.209-0.027,0.305-0.083c0.043-0.025,4.309-2.508,13.397-3.679c0.327-0.042,0.558-0.341,0.517-0.668
		c-0.043-0.327-0.342-0.557-0.668-0.516c-9.369,1.207-13.679,3.731-13.857,3.837c-0.282,0.169-0.375,0.535-0.206,0.817
		C31.129,17.693,31.329,17.797,31.532,17.797z"/>
	<path fill="#353740" stroke="#353740" stroke-width="0.75" stroke-miterlimit="10" d="M31.532,26.299
		c0.104,0,0.209-0.027,0.305-0.084c0.043-0.023,4.309-2.508,13.397-3.679c0.327-0.042,0.558-0.341,0.517-0.668
		c-0.043-0.327-0.342-0.554-0.668-0.517c-9.369,1.207-13.679,3.731-13.857,3.838c-0.282,0.17-0.375,0.535-0.206,0.817
		C31.129,26.195,31.329,26.299,31.532,26.299z"/>
	<path fill="#353740" stroke="#353740" stroke-width="0.75" stroke-miterlimit="10" d="M31.532,22.048
		c0.104,0,0.209-0.026,0.305-0.083c0.043-0.025,4.309-2.508,13.397-3.68c0.327-0.042,0.558-0.341,0.517-0.668
		c-0.043-0.327-0.342-0.553-0.668-0.516c-9.369,1.207-13.679,3.731-13.857,3.838c-0.282,0.168-0.375,0.533-0.206,0.815
		C31.129,21.943,31.329,22.048,31.532,22.048z"/>
	<path fill="#353740" stroke="#353740" stroke-width="0.75" stroke-miterlimit="10" d="M31.532,30.551
		c0.104,0,0.209-0.027,0.305-0.084c0.043-0.025,4.309-2.51,13.397-3.68c0.327-0.042,0.558-0.342,0.517-0.668
		c-0.043-0.326-0.342-0.563-0.668-0.516c-9.369,1.207-13.679,3.73-13.857,3.838c-0.282,0.168-0.375,0.535-0.206,0.817
		C31.129,30.447,31.329,30.551,31.532,30.551z"/>
	<path fill="#353740" stroke="#353740" stroke-width="0.75" stroke-miterlimit="10" d="M53.366,8.71L53.34,8.704V7.455
		c0-0.282-0.196-0.524-0.473-0.584c-0.048-0.01-1.857-0.174-3.371-0.28V2.145c0-0.327-0.266-0.594-0.593-0.597
		c-0.526,0.008-12.997-0.025-21.536,6.449C18.966,1.632,6.43,1.548,5.834,1.548H5.833c-0.328,0.003-0.592,0.27-0.592,0.597v4.446
		c-1.515,0.106-3.325,0.27-3.372,0.28C1.594,6.93,1.397,7.173,1.397,7.455v1.249L1.372,8.71l0.025,1.159v27.183
		c0,0.164,0.068,0.322,0.188,0.437c0.12,0.111,0.275,0.173,0.447,0.16C4.598,37.482,8.17,37.4,10.676,37.4
		c10.257,0,16.484,1.399,16.546,1.414c0.044,0.01,0.089,0.016,0.134,0.016c0.004,0,0.009-0.003,0.013-0.003
		c0.005,0,0.009,0.003,0.014,0.003c0.045,0,0.09-0.006,0.134-0.016C27.579,38.8,33.806,37.4,44.063,37.4
		c2.505,0,6.077,0.082,8.645,0.248c0.17,0.014,0.326-0.047,0.445-0.16c0.12-0.113,0.188-0.271,0.188-0.437V9.869L53.366,8.71z
		 M49.304,32.611c0.122-0.112,0.192-0.272,0.192-0.438V7.786c0.74,0.054,2.295,0.121,2.649,0.173v28.458
		c-2.38-0.142-5.761-0.212-8.085-0.212c-4.725,0-8.605,0.295-11.447,0.618c-0.721,0.081-1.428,0.22-2.128,0.411l-0.476,0.132
		c3.742-1.878,11.546-5.209,18.839-4.601C49.023,32.786,49.182,32.725,49.304,32.611z M27.899,9.093
		c7.196-5.583,17.801-6.26,20.404-6.34v28.78c-8.66-0.483-17.568,4.013-20.324,5.542l-0.029-1.11l-0.051-25.953V9.093z M6.435,2.752
		C8.991,2.829,19.49,3.48,26.705,8.985v28.061C24.025,35.57,15.885,31.5,7.69,31.5c-0.422,0-0.843,0.012-1.255,0.033V2.752z
		 M2.59,7.959C2.945,7.907,4.5,7.84,5.242,7.786v24.386c0,0.166,0.069,0.326,0.192,0.438c0.122,0.113,0.285,0.175,0.454,0.156
		c0.583-0.05,1.189-0.072,1.802-0.072c6.369,0,12.853,2.639,16.448,4.385c-2.878-0.404-7.498-0.874-13.462-0.874
		c-2.325,0-5.705,0.071-8.086,0.212V7.959z"/>
</g>
</svg>
