<?xml version="1.0" encoding="utf-8"?>
<!-- Generator: Adobe Illustrator 16.0.0, SVG Export Plug-In . SVG Version: 6.00 Build 0)  -->
<!DOCTYPE svg PUBLIC "-//W3C//DTD SVG 1.1//EN" "http://www.w3.org/Graphics/SVG/1.1/DTD/svg11.dtd">
<svg version="1.1" id="Calque_1" xmlns="http://www.w3.org/2000/svg" xmlns:xlink="http://www.w3.org/1999/xlink" x="0px" y="0px"
	 width="54.625px" height="50px" viewBox="3.364 0 54.625 50" enable-background="new 3.364 0 54.625 50" xml:space="preserve">
<path fill="#353740" stroke="#353740" stroke-miterlimit="10" d="M54.366,38.951L41.007,25.594L50.5,16.1h0.001l2.488-2.488
	c0.876-0.876,1.358-2.041,1.358-3.28c0-1.239-0.482-2.404-1.358-3.28L48.73,2.793c-0.876-0.876-2.041-1.359-3.28-1.359
	c-1.238,0-2.403,0.482-3.279,1.359L39.684,5.28h-0.001L29.669,15.294l0.521-0.519L16.831,1.417c-0.254-0.254-0.665-0.254-0.919,0
	l-9.73,9.731c-0.123,0.122-0.19,0.287-0.19,0.459s0.068,0.338,0.19,0.459l13.357,13.358l-5.454,5.454
	c-0.019,0.019-0.025,0.043-0.042,0.063c-0.095,0.078-0.176,0.174-0.214,0.3L9.48,45.402c-0.07,0.229-0.008,0.479,0.162,0.649
	l0.088,0.089c0.124,0.123,0.29,0.189,0.459,0.189c0.063,0,0.128-0.01,0.19-0.028l14.161-4.35c0.126-0.039,0.224-0.12,0.301-0.216
	c0.02-0.016,0.043-0.022,0.062-0.041l5.453-5.452L43.714,49.6c0.127,0.127,0.293,0.19,0.46,0.19c0.166,0,0.332-0.063,0.459-0.19
	l9.731-9.729c0.122-0.122,0.19-0.287,0.19-0.46C54.554,39.236,54.488,39.073,54.366,38.951z M18.292,34.166L42.97,9.489l3.323,3.324
	L21.616,37.49L18.292,34.166z M43.09,3.711c1.263-1.261,3.461-1.26,4.723,0l4.259,4.259c0.631,0.631,0.978,1.469,0.978,2.361
	s-0.347,1.73-0.978,2.361l-2.029,2.029l-8.979-8.98L43.09,3.711z M7.56,11.607l8.812-8.812l3.998,3.998l-2.825,2.825
	c-0.254,0.254-0.254,0.665,0,0.919c0.127,0.127,0.293,0.19,0.459,0.19s0.333-0.063,0.459-0.19l2.825-2.825l3.426,3.426l-2.824,2.825
	c-0.255,0.254-0.255,0.665,0,0.919c0.126,0.127,0.293,0.19,0.459,0.19s0.333-0.063,0.459-0.19l2.825-2.825l3.637,3.636l-8.823,8.822
	l0.011-0.01L7.56,11.607z M40.142,6.66l1.908,1.91L17.374,33.248l-1.909-1.91L40.142,6.66z M12.226,40.891l2.572-8.379l8.472,8.473
	l-8.377,2.572L12.226,40.891z M24.444,40.318l-1.909-1.909l24.678-24.678l1.909,1.909L24.444,40.318z M44.175,48.223L31.277,35.324
	l8.812-8.813l3.376,3.377l-4.945,4.945c-0.254,0.254-0.254,0.666,0,0.92c0.127,0.127,0.293,0.189,0.46,0.189
	c0.166,0,0.332-0.063,0.459-0.189l4.945-4.947l3.833,3.834l-2.824,2.824c-0.254,0.254-0.254,0.665,0,0.919
	c0.127,0.127,0.293,0.19,0.459,0.19c0.167,0,0.333-0.063,0.46-0.19l2.824-2.825l3.853,3.853L44.175,48.223z"/>
</svg>
