<?xml version="1.0" encoding="utf-8"?>
<!-- Generator: Adobe Illustrator 16.0.0, SVG Export Plug-In . SVG Version: 6.00 Build 0)  -->
<!DOCTYPE svg PUBLIC "-//W3C//DTD SVG 1.1//EN" "http://www.w3.org/Graphics/SVG/1.1/DTD/svg11.dtd">
<svg version="1.1" id="Calque_1" xmlns="http://www.w3.org/2000/svg" xmlns:xlink="http://www.w3.org/1999/xlink" x="0px" y="0px"
	 width="51.584px" height="50px" viewBox="0 0 51.584 50" enable-background="new 0 0 51.584 50" xml:space="preserve">
<g>
	<path fill="#353740" stroke="#353740" stroke-width="0.75" stroke-miterlimit="10" d="M43.674,7.364
		c-3.063-3.048-7.122-4.722-11.427-4.711c-4.258,0.01-8.25,1.672-11.243,4.678c-3.009,3.024-4.651,7.049-4.624,11.331
		c0.019,2.819,0.772,5.521,2.146,7.908L4.592,40.574c-1.664,1.672-1.658,4.387,0.015,6.052c0.836,0.832,1.933,1.246,3.029,1.242
		c1.096-0.002,2.191-0.422,3.023-1.257l13.935-14.005c2.413,1.372,5.141,2.114,7.984,2.107c4.258-0.012,8.251-1.673,11.242-4.68
		c3.009-3.023,4.651-7.047,4.622-11.331C48.414,14.422,46.721,10.396,43.674,7.364z M9.625,45.583
		c-1.098,1.103-2.888,1.107-3.991,0.01c-1.102-1.099-1.106-2.888-0.009-3.991l8.082-8.122l4.001,3.98L9.625,45.583z M18.735,36.428
		l-4-3.981l4.595-4.617c0.54,0.766,1.14,1.497,1.819,2.173c0.679,0.675,1.413,1.271,2.182,1.808L18.735,36.428z M42.786,29.007
		c-2.718,2.73-6.344,4.239-10.212,4.249c-3.917,0.01-7.61-1.514-10.397-4.287c-2.772-2.759-4.312-6.422-4.338-10.315
		c-0.026-3.891,1.465-7.547,4.199-10.293c2.717-2.73,6.343-4.24,10.213-4.25c3.916-0.009,7.607,1.513,10.396,4.287
		c2.771,2.758,4.313,6.421,4.339,10.316C47.01,22.604,45.52,26.26,42.786,29.007z"/>
	<path fill="#353740" stroke="#353740" stroke-width="0.75" stroke-miterlimit="10" d="M40.776,10.277
		c-2.275-2.264-5.289-3.507-8.487-3.499c-3.161,0.008-6.126,1.243-8.349,3.475c-4.612,4.635-4.565,12.188,0.106,16.835
		c2.275,2.265,5.289,3.506,8.485,3.498c3.162-0.008,6.128-1.241,8.35-3.475c2.234-2.247,3.455-5.234,3.434-8.416
		C44.295,15.518,43.038,12.528,40.776,10.277z M39.849,26.084c-1.947,1.957-4.548,3.039-7.319,3.046
		c-2.808,0.007-5.455-1.084-7.454-3.074c-4.102-4.082-4.147-10.709-0.102-14.774c1.948-1.957,4.547-3.038,7.319-3.045
		c2.808-0.007,5.456,1.085,7.455,3.075c1.986,1.978,3.093,4.604,3.11,7.396C42.877,21.495,41.809,24.116,39.849,26.084z"/>
	<path fill="#353740" stroke="#353740" stroke-width="0.75" stroke-miterlimit="10" d="M38.435,12.63
		c-0.285-0.285-0.746-0.283-1.03,0.002c-0.284,0.285-0.283,0.746,0.002,1.03c1.354,1.347,2.107,3.137,2.119,5.038
		c0.013,1.899-0.715,3.683-2.048,5.023c-0.285,0.285-0.284,0.746,0.002,1.03c0.144,0.143,0.329,0.212,0.516,0.212
		c0.187-0.001,0.373-0.072,0.515-0.214c1.61-1.618,2.488-3.77,2.473-6.061C40.968,16.402,40.063,14.25,38.435,12.63z"/>
</g>
</svg>
