<?xml version="1.0" encoding="utf-8"?>
<!-- Generator: Adobe Illustrator 21.0.2, SVG Export Plug-In . SVG Version: 6.00 Build 0)  -->
<svg version="1.1" id="Слой_1" xmlns="http://www.w3.org/2000/svg" xmlns:xlink="http://www.w3.org/1999/xlink" x="0px" y="0px"
	 viewBox="0 0 32 32" style="enable-background:new 0 0 32 32;" xml:space="preserve">
<style type="text/css">
	.st0{fill:#F9F9F9;}
</style>
<path class="st0" d="M25.4,14.5H6.7l7.5-7.4c0.3-0.3,0.4-0.7,0.4-1.1c0-0.4-0.2-0.8-0.4-1.1c-0.6-0.6-1.6-0.6-2.1,0l-9.9,9.9
	c-0.3,0.3-0.4,0.7-0.4,1.1s0.2,0.8,0.4,1.1l9.9,9.9c0.3,0.3,0.7,0.4,1.1,0.4s0.8-0.2,1.1-0.4c0.3-0.3,0.4-0.7,0.4-1.1
	s-0.2-0.8-0.4-1.1l-7.4-7.2h18.6c0.8,0,1.5-0.7,1.5-1.5S26.2,14.5,25.4,14.5z"/>
</svg>
