<?xml version="1.0" encoding="UTF-8"?>
<svg width="88px" height="52px" viewBox="0 0 88 52" version="1.1" xmlns="http://www.w3.org/2000/svg" xmlns:xlink="http://www.w3.org/1999/xlink">
    <!-- Generator: Sketch 42 (36781) - http://www.bohemiancoding.com/sketch -->
    <title>Group 17</title>
    <desc>Created with Sketch.</desc>
    <defs></defs>
    <g id="Page-1" stroke="none" stroke-width="1" fill="none" fill-rule="evenodd">
        <g id="Artboard-Copy-10" transform="translate(-1062.000000, -221.000000)">
            <g id="Group-23" transform="translate(1062.000000, 221.000000)">
                <g id="Group-17">
                    <path d="M2.85714286,13.9249608 L6.86160714,13.9249608 L6.86160714,11.8631657 C6.86160714,9.5608163 7.10546631,7.84267088 7.59319196,6.7086779 C8.08091762,5.57468492 8.97934613,4.65118176 10.2885045,3.93814072 C11.5976628,3.22509968 13.2533382,2.8685845 15.2555804,2.8685845 C17.3091621,2.8685845 19.3199306,3.17785068 21.2879464,3.79639231 L20.3125,8.84779033 C19.1659169,8.57288294 18.0621333,8.43543131 17.0011161,8.43543131 C15.957212,8.43543131 15.2085216,8.68026703 14.7550223,9.16994582 C14.301523,9.65962461 14.0747768,10.6003092 14.0747768,11.9920279 L14.0747768,13.9249608 L19.4654018,13.9249608 L19.4654018,19.6206698 L14.0747768,19.6206698 L14.0747768,41.2952909 L6.86160714,41.2952909 L6.86160714,19.6206698 L2.85714286,19.6206698 L2.85714286,13.9249608 Z M56.8660714,36.6820244 L52.5022321,42.2746436 C50.3630845,41.2265592 48.3095336,39.783317 46.3415179,37.9448739 C44.8184448,39.3194108 43.2012734,40.3331166 41.4899554,40.9860217 C39.7786373,41.6389267 37.7421993,41.9653743 35.3805804,41.9653743 C30.6915688,41.9653743 27.1663065,40.6424024 24.8046875,37.9964187 C22.9735772,35.951795 22.0580357,33.5979358 22.0580357,30.9347705 C22.0580357,28.5121491 22.7767785,26.3343998 24.2142857,24.4014572 C25.6517929,22.4685146 27.7994649,20.7890275 30.6573661,19.3629454 C29.3738775,17.8337731 28.4069973,16.3776448 27.7566964,14.994517 C27.1063956,13.6113892 26.78125,12.3013033 26.78125,11.0642201 C26.78125,8.7790524 27.6925132,6.84184345 29.515067,5.2525351 C31.3376207,3.66322676 33.934507,2.8685845 37.3058036,2.8685845 C40.5573079,2.8685845 43.0985772,3.70188503 44.9296875,5.36851108 C46.7607978,7.03513713 47.6763393,9.07113944 47.6763393,11.4765791 C47.6763393,13.0057515 47.2228468,14.4575843 46.3158482,15.8321213 C45.4088496,17.2066582 43.5777668,18.7615798 40.8225446,20.4969327 L46.0591518,27.4297188 C46.6752263,26.3300892 47.2057269,24.8954378 47.6506696,23.1257215 L54.1707589,24.6205229 C53.5204581,26.940054 52.9557316,28.6367226 52.4765625,29.7105796 C51.9973934,30.7844366 51.4840057,31.6821676 50.9363839,32.4037995 C51.7407034,33.1597948 52.7803136,33.9888 54.0552455,34.8908399 C55.3301775,35.7928797 56.2671101,36.3899353 56.8660714,36.6820244 Z M37.2287946,16.1413905 L39.1796875,14.6465891 C40.6171947,13.5297778 41.3359375,12.421574 41.3359375,11.3219445 C41.3359375,10.394132 40.9894008,9.60378514 40.296317,8.95088009 C39.6032331,8.29797504 38.6663005,7.97152741 37.4854911,7.97152741 C36.338908,7.97152741 35.4404794,8.25931677 34.7901786,8.83490411 C34.1398777,9.41049146 33.8147321,10.0762728 33.8147321,10.8322681 C33.8147321,11.7257171 34.3623457,12.8081488 35.4575893,14.0795954 L37.2287946,16.1413905 Z M34.4051339,24.0019844 C32.7451554,24.8438883 31.5044684,25.8575941 30.6830357,27.0431322 C29.861603,28.2286703 29.4508929,29.4399628 29.4508929,30.6770461 C29.4508929,32.2405819 29.9600023,33.5163048 30.9782366,34.5042533 C31.9964709,35.4922017 33.3612266,35.9861685 35.0725446,35.9861685 C36.2020146,35.9861685 37.2886853,35.7628096 38.3325893,35.3160851 C39.3764933,34.8693606 40.5145028,34.1305581 41.7466518,33.0996553 L34.4051339,24.0019844 Z M61.28125,13.9249608 L68.0066964,13.9249608 L68.0066964,17.9454613 C68.8794686,16.5709243 70.0602604,15.4541298 71.5491071,14.5950442 C73.0379539,13.7359586 74.689351,13.3064223 76.5033482,13.3064223 C79.6692867,13.3064223 82.3560157,14.5520777 84.5636161,17.0434259 C86.7712164,19.5347741 87.875,23.0054279 87.875,27.4554912 C87.875,32.0258266 86.7626599,35.5780922 84.5379464,38.1123947 C82.3132329,40.6466972 79.6179474,41.9138295 76.4520089,41.9138295 C74.946049,41.9138295 73.5812933,41.613154 72.3577009,41.0117941 C71.1341085,40.4104342 69.8463609,39.3795469 68.4944196,37.9191014 L68.4944196,51.7073562 L61.28125,51.7073562 L61.28125,13.9249608 Z M68.4174107,27.146222 C68.4174107,30.2217484 69.0249195,32.4939957 70.2399554,33.963032 C71.4549912,35.4320684 72.9352591,36.1665756 74.6808036,36.1665756 C76.3578953,36.1665756 77.7525986,35.4922035 78.8649554,34.1434391 C79.9773121,32.7946747 80.5334821,30.5825625 80.5334821,27.5070361 C80.5334821,24.6376902 79.9601992,22.5071899 78.8136161,21.1154713 C77.667033,19.7237526 76.2466603,19.0279037 74.5524554,19.0279037 C72.7897977,19.0279037 71.3266427,19.7108665 70.1629464,21.0768126 C68.9992501,22.4427587 68.4174107,24.4658749 68.4174107,27.146222 Z" id="f&amp;p" fill="#0D31FB"></path>
                    <path d="M0,11.0563763 L4.00446429,11.0563763 L4.00446429,8.99458118 C4.00446429,6.69223179 4.24832345,4.97408638 4.73604911,3.8400934 C5.22377476,2.70610042 6.12220328,1.78259726 7.43136161,1.06955621 C8.74051994,0.356515173 10.3961953,0 12.3984375,0 C14.4520192,0 16.4627878,0.309266174 18.4308036,0.927807801 L17.4553571,5.97920583 C16.308774,5.70429844 15.2049904,5.5668468 14.1439732,5.5668468 C13.1000692,5.5668468 12.3513788,5.81168253 11.8978795,6.30136131 C11.4443802,6.7910401 11.2176339,7.73172471 11.2176339,9.12344337 L11.2176339,11.0563763 L16.6082589,11.0563763 L16.6082589,16.7520853 L11.2176339,16.7520853 L11.2176339,38.4267064 L4.00446429,38.4267064 L4.00446429,16.7520853 L0,16.7520853 L0,11.0563763 Z M54.0089286,33.8134398 L49.6450893,39.4060591 C47.5059417,38.3579747 45.4523908,36.9147325 43.484375,35.0762894 C41.9613019,36.4508263 40.3441306,37.4645321 38.6328125,38.1174371 C36.9214944,38.7703422 34.8850565,39.0967898 32.5234375,39.0967898 C27.834426,39.0967898 24.3091636,37.7738179 21.9475446,35.1278342 C20.1164343,33.0832105 19.2008929,30.7293513 19.2008929,28.066186 C19.2008929,25.6435646 19.9196357,23.4658153 21.3571429,21.5328727 C22.79465,19.5999301 24.942322,17.920443 27.8002232,16.4943609 C26.5167347,14.9651885 25.5498544,13.5090603 24.8995536,12.1259325 C24.2492527,10.7428047 23.9241071,9.43271883 23.9241071,8.19563557 C23.9241071,5.9104679 24.8353704,3.97325895 26.6579241,2.3839506 C28.4804779,0.794642253 31.0773641,0 34.4486607,0 C37.7001651,0 40.2414343,0.833300525 42.0725446,2.49992657 C43.903655,4.16655262 44.8191964,6.20255494 44.8191964,8.6079946 C44.8191964,10.137167 44.3657039,11.5889998 43.4587054,12.9635368 C42.5517068,14.3380737 40.7206239,15.8929953 37.9654018,17.6283482 L43.2020089,24.5611343 C43.8180834,23.4615047 44.3485841,22.0268533 44.7935268,20.257137 L51.3136161,21.7519384 C50.6633152,24.0714695 50.0985887,25.7681381 49.6194196,26.8419951 C49.1402506,27.9158521 48.6268629,28.8135831 48.0792411,29.535215 C48.8835606,30.2912103 49.9231707,31.1202155 51.1981027,32.0222553 C52.4730346,32.9242952 53.4099672,33.5213507 54.0089286,33.8134398 Z M34.3716518,13.272806 L36.3225446,11.7780046 C37.7600518,10.6611933 38.4787946,9.55298952 38.4787946,8.45335996 C38.4787946,7.52554752 38.1322579,6.73520063 37.4391741,6.08229558 C36.7460903,5.42939053 35.8091577,5.1029429 34.6283482,5.1029429 C33.4817651,5.1029429 32.5833366,5.39073226 31.9330357,5.96631961 C31.2827348,6.54190695 30.9575893,7.2076883 30.9575893,7.96368362 C30.9575893,8.85713264 31.5052029,9.93956425 32.6004464,11.2110109 L34.3716518,13.272806 Z M31.5479911,21.1333999 C29.8880125,21.9753038 28.6473255,22.9890096 27.8258929,24.1745477 C27.0044602,25.3600858 26.59375,26.5713783 26.59375,27.8084616 C26.59375,29.3719974 27.1028595,30.6477203 28.1210937,31.6356688 C29.139328,32.6236172 30.5040837,33.117584 32.2154018,33.117584 C33.3448717,33.117584 34.4315424,32.8942251 35.4754464,32.4475006 C36.5193505,32.0007761 37.6573599,31.2619736 38.8895089,30.2310708 L31.5479911,21.1333999 Z M58.4241071,11.0563763 L65.1495536,11.0563763 L65.1495536,15.0768768 C66.0223258,13.7023398 67.2031176,12.5855453 68.6919643,11.7264597 C70.180811,10.8673741 71.8322082,10.4378378 73.6462054,10.4378378 C76.8121438,10.4378378 79.4988729,11.6834932 81.7064732,14.1748414 C83.9140735,16.6661896 85.0178571,20.1368434 85.0178571,24.5869067 C85.0178571,29.1572421 83.9055171,32.7095077 81.6808036,35.2438102 C79.4560901,37.7781127 76.7608045,39.0452449 73.5948661,39.0452449 C72.0889062,39.0452449 70.7241505,38.7445695 69.500558,38.1432096 C68.2769656,37.5418497 66.9892181,36.5109624 65.6372768,35.0505169 L65.6372768,48.8387717 L58.4241071,48.8387717 L58.4241071,11.0563763 Z M65.5602679,24.2776375 C65.5602679,27.3531639 66.1677767,29.6254112 67.3828125,31.0944475 C68.5978483,32.5634839 70.0781163,33.2979911 71.8236607,33.2979911 C73.5007524,33.2979911 74.8954557,32.623619 76.0078125,31.2748546 C77.1201693,29.9260902 77.6763393,27.713978 77.6763393,24.6384516 C77.6763393,21.7691057 77.1030563,19.6386054 75.9564732,18.2468867 C74.8098901,16.8551681 73.3895174,16.1593192 71.6953125,16.1593192 C69.9326549,16.1593192 68.4694999,16.842282 67.3058036,18.2082281 C66.1421073,19.5741742 65.5602679,21.5972904 65.5602679,24.2776375 Z" id="f&amp;p" fill="#FFFFFF"></path>
                </g>
            </g>
        </g>
    </g>
</svg>