<?xml version="1.0" encoding="utf-8"?>
<!-- Generator: Adobe Illustrator 16.0.0, SVG Export Plug-In . SVG Version: 6.00 Build 0)  -->
<!DOCTYPE svg PUBLIC "-//W3C//DTD SVG 1.1//EN" "http://www.w3.org/Graphics/SVG/1.1/DTD/svg11.dtd">
<svg version="1.1" id="Calque_1" xmlns="http://www.w3.org/2000/svg" xmlns:xlink="http://www.w3.org/1999/xlink" x="0px" y="0px"
	 width="260.257px" height="66px" viewBox="0 0 260.257 66" enable-background="new 0 0 260.257 66" xml:space="preserve">
<g>
	<g>
		<linearGradient id="SVGID_1_" gradientUnits="userSpaceOnUse" x1="47.6992" y1="50.7764" x2="259.0601" y2="30.4407">
			<stop  offset="0" style="stop-color:#A82AFB"/>
			<stop  offset="0.2064" style="stop-color:#B126FB"/>
			<stop  offset="0.5494" style="stop-color:#CB1AFB"/>
			<stop  offset="0.9845" style="stop-color:#F406FC"/>
			<stop  offset="0.9944" style="stop-color:#F506FC"/>
		</linearGradient>
		<path fill="url(#SVGID_1_)" d="M209,43.129C209,49.823,204.076,55,198.004,55H58.997C52.923,55,48,49.823,48,43.129v-0.008
			C48,36.427,52.923,31,58.997,31h139.007C204.076,31,209,36.427,209,43.121V43.129z"/>
		<linearGradient id="SVGID_2_" gradientUnits="userSpaceOnUse" x1="48.6069" y1="61.2725" x2="260.066" y2="40.9274">
			<stop  offset="0" style="stop-color:#A82AFB"/>
			<stop  offset="0.2064" style="stop-color:#B126FB"/>
			<stop  offset="0.5494" style="stop-color:#CB1AFB"/>
			<stop  offset="0.9845" style="stop-color:#F406FC"/>
			<stop  offset="0.9944" style="stop-color:#F506FC"/>
		</linearGradient>
		<path fill="url(#SVGID_2_)" d="M257,43.129C257,49.823,252.076,55,246.004,55h-15.008C224.924,55,220,49.823,220,43.129v-0.008
			C220,36.427,224.924,31,230.996,31h15.008C252.076,31,257,36.427,257,43.121V43.129z"/>
	</g>
	<g>
		<image overflow="visible" opacity="0.4" width="205" height="66" xlink:href="59A1F2CE.png"  transform="matrix(1 0 0 1 10 0)">
		</image>
		<g>
			<g>
				<path fill="#FFFFFF" d="M24.997,40.73V25.315h-2.83v-3.604h2.83v-2.109c0-2.133,0.615-3.776,1.846-4.931
					s2.959-1.731,5.186-1.731c0.434,0,0.876,0.032,1.327,0.097s0.946,0.155,1.485,0.272l-0.439,3.814
					c-0.281-0.047-0.554-0.088-0.817-0.123s-0.571-0.053-0.923-0.053c-0.832,0-1.462,0.229-1.89,0.686s-0.642,1.113-0.642,1.969
					v2.109h3.779v3.604H30.13V40.73H24.997z"/>
				<path fill="#FFFFFF" d="M42.825,40.73h-5.133V13.309h5.133V40.73z"/>
				<path fill="#FFFFFF" d="M59.563,37.988c-0.586,0.996-1.33,1.764-2.232,2.303S55.391,41.1,54.219,41.1
					c-2.004,0-3.571-0.641-4.702-1.924s-1.696-3.279-1.696-5.986V21.711h5.115v11.54c0,1.385,0.234,2.381,0.703,2.987
					c0.469,0.604,1.16,0.906,2.074,0.906c0.82,0,1.523-0.132,2.109-0.396c0.586-0.264,1.066-0.654,1.441-1.171V21.711h5.133V40.73
					H60.02L59.563,37.988z M54.043,18.618h-4.676v-3.586h4.676V18.618z M62.832,18.618h-4.676v-3.586h4.676V18.618z"/>
				<path fill="#FFFFFF" d="M74.895,36.775h9.422v3.955H68.514v-3.037l9.053-12.027h-8.771v-3.955h15.223v2.923L74.895,36.775z"/>
				<path fill="#FFFFFF" d="M87.203,33.963c0.117-2.145,1.389-4.049,3.814-5.713l1.723-1.107l-0.703-1.582
					c-0.609-1.477-0.873-2.783-0.791-3.92c0.094-1.348,0.475-2.552,1.143-3.612s1.559-1.875,2.672-2.443s2.326-0.835,3.639-0.8
					c1.723,0.047,3.135,0.618,4.236,1.714s1.617,2.464,1.547,4.104c-0.117,2.215-1.447,4.16-3.99,5.836l-2.004,1.318l3.305,4.957
					c0.984-1.406,1.576-2.918,1.775-4.535h4.201c-0.223,3.305-1.354,6.029-3.393,8.173l2.953,4.377h-5.309l-0.967-1.477
					c-2.109,1.254-4.283,1.857-6.521,1.811c-2.227-0.023-4.037-0.693-5.432-2.012S87.074,36.037,87.203,33.963z M94.919,36.969
					c1.02,0.035,2.244-0.309,3.674-1.033l-3.762-5.787l-0.422,0.28c-1.242,0.923-1.951,2.017-2.127,3.279
					c-0.129,0.97,0.059,1.751,0.563,2.341S94.041,36.945,94.919,36.969z M95.587,21.581c-0.047,0.28-0.053,0.555-0.018,0.824
					c0.082,0.619,0.369,1.402,0.861,2.348l1.441-0.876c1.453-0.876,2.232-1.864,2.338-2.962c0.07-0.584-0.062-1.069-0.396-1.455
					c-0.334-0.386-0.788-0.579-1.362-0.579c-0.727-0.023-1.359,0.228-1.898,0.754C96.015,20.161,95.693,20.809,95.587,21.581z"/>
				<path fill="#FFFFFF" d="M129.604,31.749c0,2.812-0.65,5.074-1.951,6.785s-3.117,2.566-5.449,2.566
					c-0.996,0-1.881-0.184-2.654-0.553s-1.436-0.912-1.986-1.627v9.123h-5.115V21.711h4.623l0.299,2.25
					c0.563-0.832,1.239-1.474,2.03-1.925s1.714-0.677,2.769-0.677c2.355,0,4.184,0.92,5.484,2.76s1.951,4.26,1.951,7.26V31.749z
					 M124.472,31.354c0-1.796-0.299-3.251-0.896-4.366c-0.598-1.115-1.512-1.672-2.742-1.672c-0.773,0-1.433,0.159-1.978,0.476
					s-0.976,0.769-1.292,1.355v8.344c0.316,0.54,0.747,0.951,1.292,1.232s1.216,0.422,2.013,0.422c1.242,0,2.153-0.486,2.733-1.461
					c0.58-0.974,0.87-2.294,0.87-3.96V31.354z"/>
				<path fill="#FFFFFF" d="M132.877,31.045c0-2.836,0.791-5.159,2.373-6.97c1.582-1.811,3.773-2.716,6.574-2.716
					c2.813,0,5.016,0.902,6.609,2.707s2.391,4.131,2.391,6.979v0.369c0,2.859-0.793,5.189-2.381,6.988s-3.783,2.697-6.584,2.697
					c-2.813,0-5.012-0.898-6.6-2.697c-1.588-1.799-2.382-4.129-2.382-6.988V31.045z M137.992,31.405
					c0,1.732,0.305,3.122,0.914,4.169s1.594,1.57,2.953,1.57c1.324,0,2.295-0.525,2.91-1.579s0.922-2.44,0.922-4.16v-0.368
					c0-1.685-0.311-3.06-0.932-4.125c-0.621-1.065-1.6-1.598-2.936-1.598c-1.324,0-2.293,0.536-2.908,1.606
					c-0.615,1.07-0.924,2.442-0.924,4.116V31.405z"/>
				<path fill="#FFFFFF" d="M171.43,33.928h0.105l2.479-12.217h4.816l-4.834,19.019h-4.289l-3.533-11.32h-0.105l-3.533,11.32h-4.271
					l-4.834-19.019h4.816l2.514,12.182h0.105l3.551-12.182h3.428L171.43,33.928z"/>
				<path fill="#FFFFFF" d="M181.488,31.045c0-2.836,0.791-5.159,2.373-6.97s3.773-2.716,6.574-2.716
					c2.813,0,5.016,0.902,6.609,2.707s2.391,4.131,2.391,6.979v0.369c0,2.859-0.794,5.189-2.382,6.988s-3.782,2.697-6.583,2.697
					c-2.813,0-5.013-0.898-6.601-2.697s-2.382-4.129-2.382-6.988V31.045z M186.604,31.405c0,1.732,0.305,3.122,0.914,4.169
					s1.594,1.57,2.953,1.57c1.324,0,2.294-0.525,2.909-1.579s0.923-2.44,0.923-4.16v-0.368c0-1.685-0.311-3.06-0.932-4.125
					c-0.621-1.065-1.6-1.598-2.936-1.598c-1.324,0-2.294,0.536-2.909,1.606c-0.615,1.07-0.923,2.442-0.923,4.116V31.405z"/>
			</g>
		</g>
	</g>
</g>
</svg>
